# xmcd
#
# Track frame offsets:
#	150
#	15227
#	33051
#	47660
#	63588
#	81019
#	99512
#	117134
#	134233
#	150288
#	168860
#	187426
#	204413
#	222502
#	240093
#
# Disc length: 3480 seconds
#
# Revision: 0
# Processed by: cddbd v1.5.2PL0 Copyright (c) Steve Scherf et al.
# Submitted via: audiograbber 1.83.01
#
DISCID=bf0d960f
DTITLE=Mudbone - Fresh Mud
DYEAR=2006
DGENRE=R&B
TTITLE0=Make The Devil Mad
TTITLE1=Karma
TTITLE2=Evil
TTITLE3=Heaven
TTITLE4=This Old World (Visitors Mix)
TTITLE5=Boy From Baltimore
TTITLE6=Freedom's Coming
TTITLE7=Come Together Now
TTITLE8=Where The Wind Lives
TTITLE9=Walking On Air (Flatbush Mix)
TTITLE10=Rest Of My Life
TTITLE11=Pray (Troubled World Mix)
TTITLE12=Stranded For Life
TTITLE13=Life Can Be The Greatest Thing
TTITLE14=Home
EXTD=
EXTT0=
EXTT1=
EXTT2=
EXTT3=
EXTT4=
EXTT5=
EXTT6=
EXTT7=
EXTT8=
EXTT9=
EXTT10=
EXTT11=
EXTT12=
EXTT13=
EXTT14=
PLAYORDER=
